# xmcd
#
# Track frame offsets:
#	150
#	13203
#	23889
#	35317
#	47933
#	61193
#	69662
#	79475
#	92618
#	101247
#	113537
#	122238
#	137997
#	150528
#	164365
#	174105
#	186114
#	196403
#	209345
#	218048
#	231838
#	240868
#	252322
#	265266
#	277575
#	288671
#
# Disc length: 3997 seconds
#
# Revision: 0
# Processed by: cddbd v1.5.2PL0 Copyright (c) Steve Scherf et al.
# Submitted via: audiograbber 1.83.01
#
DISCID=700f9b1a
DTITLE=Don Gibson - The Complete Recordings [1952-1962] [CD4]
DYEAR=2017
DGENRE=Country
TTITLE0=Lonesone Road (1961)
TTITLE1=Think Its Best (To Forget Me) (1961)
TTITLE2=Born To Lose (1961)
TTITLE3=White Silver Sands (1961)
TTITLE4=No One Will Ever Know (1961)
TTITLE5=Fireball Mail (1961)
TTITLE6=Above And Beyond (1961)
TTITLE7=Driftwood On The River (1961)
TTITLE8=Camptown Races (1961)
TTITLE9=Beautiful Dreamer (1961)
TTITLE10=Cute Little Girls (1961)
TTITLE11=The Lost Letter (1961)
TTITLE12=Where Is Your Heart Tonight (1962)
TTITLE13=Blue Dream (1962)
TTITLE14=How's The World Treating You (1962)
TTITLE15=May You Never Be Alone (1962)
TTITLE16=Settin' The Woods On Fire (1962)
TTITLE17=We Live In Two Different Worlds (1962)
TTITLE18=Baby We're Really In Love (1962)
TTITLE19=It Makes No Difference Now (1962)
TTITLE20=I Love You So Much It Hurts (1962)
TTITLE21=It's A Sin (1962)
TTITLE22=I'm Sorry For You My Friend (1962)
TTITLE23=This Cold War With You (1962)
TTITLE24=I Can Mend A Broken Heart (1962)
TTITLE25=So How Come (No One Loves Me) (1962)
EXTD=
EXTT0=
EXTT1=
EXTT2=
EXTT3=
EXTT4=
EXTT5=
EXTT6=
EXTT7=
EXTT8=
EXTT9=
EXTT10=
EXTT11=
EXTT12=
EXTT13=
EXTT14=
EXTT15=
EXTT16=
EXTT17=
EXTT18=
EXTT19=
EXTT20=
EXTT21=
EXTT22=
EXTT23=
EXTT24=
EXTT25=
PLAYORDER=
